<svg width="1178" height="303" viewBox="0 0 1178 303" fill="none" xmlns="http://www.w3.org/2000/svg">
<path d="M118.413 291C150.539 291 171.926 275.494 192.8 256.962L240.349 209.034L240.241 208.929L292.236 156.737C296.791 152.955 330.131 107.949 363.208 107.949C398.422 107.949 426.969 136.396 426.969 171.487C426.969 206.579 398.422 235.026 363.208 235.026C333.852 235.026 318.625 217.416 294.802 189.864C270.979 162.313 294.801 189.863 294.801 189.863C292.788 187.54 290.779 185.212 288.759 182.895L251.667 219.857L295.005 262.103C312.115 280.261 333.483 291 363.587 291C428.985 291 482 238.17 482 173C482 107.83 428.985 55 363.587 55C336.372 55 316.625 62.0737 300.629 75.8941C279.639 94.3825 260.508 115.31 240.597 134.939L240.546 134.889L179.7 197.317C166.992 210.442 141.461 236.538 116.894 236.538C81.6805 236.538 53.1339 208.091 53.1339 173C53.1339 137.909 81.6805 109.462 116.894 109.462C146.25 109.462 161.477 127.072 185.3 154.623C187.256 156.885 189.27 159.214 191.354 161.605L229.631 124.187L191.342 86.6453C173.517 66.2582 151.121 55 118.413 55C53.0151 55 0 107.83 0 173C0 238.17 53.0151 291 118.413 291Z" fill="white"/>
<path d="M118.413 291C150.539 291 171.926 275.494 192.8 256.962L240.349 209.034L240.241 208.929L292.236 156.737C296.791 152.955 330.131 107.949 363.208 107.949C398.422 107.949 426.969 136.396 426.969 171.487C426.969 206.579 398.422 235.026 363.208 235.026C333.852 235.026 318.625 217.416 294.802 189.864C270.979 162.313 294.801 189.863 294.801 189.863C292.788 187.54 290.779 185.212 288.759 182.895L251.667 219.857L295.005 262.103C312.115 280.261 333.483 291 363.587 291C428.985 291 482 238.17 482 173C482 107.83 428.985 55 363.587 55C336.372 55 316.625 62.0737 300.629 75.8941C279.639 94.3825 260.508 115.31 240.597 134.939L240.546 134.889L179.7 197.317C166.992 210.442 141.461 236.538 116.894 236.538C81.6805 236.538 53.1339 208.091 53.1339 173C53.1339 137.909 81.6805 109.462 116.894 109.462C146.25 109.462 161.477 127.072 185.3 154.623C187.256 156.885 189.27 159.214 191.354 161.605L229.631 124.187L191.342 86.6453C173.517 66.2582 151.121 55 118.413 55C53.0151 55 0 107.83 0 173C0 238.17 53.0151 291 118.413 291Z" fill="url(#paint0_linear_2_60)" fill-opacity="0.72"/>
<path d="M709.75 83.625L657.875 238H621.5L689.5 56H712.75L709.75 83.625ZM753.125 238L701 83.625L697.875 56H721.25L789.625 238H753.125ZM750.75 170.375V197.5H653.125V170.375H750.75ZM808.375 56H874.5C888.333 56 900.208 58.0833 910.125 62.25C920.042 66.4167 927.667 72.5833 933 80.75C938.333 88.9167 941 98.9583 941 110.875C941 120.292 939.333 128.458 936 135.375C932.667 142.292 927.958 148.083 921.875 152.75C915.875 157.417 908.792 161.083 900.625 163.75L889.875 169.25H831.5L831.25 142.125H874.875C881.958 142.125 887.833 140.875 892.5 138.375C897.167 135.875 900.667 132.417 903 128C905.417 123.583 906.625 118.542 906.625 112.875C906.625 106.792 905.458 101.542 903.125 97.125C900.792 92.625 897.25 89.1667 892.5 86.75C887.75 84.3333 881.75 83.125 874.5 83.125H842.75V238H808.375V56ZM911.125 238L869 156.5L905.375 156.375L948 236.25V238H911.125ZM986.125 56H1015.88L1065.62 193L1115.25 56H1145.12L1077.5 238H1053.62L986.125 56ZM971.125 56H1000.25L1005.5 181.875V238H971.125V56ZM1130.88 56H1160.12V238H1125.75V181.875L1130.88 56Z" fill="#F8F3F3"/>
<path d="M640.153 262.695V290H633.942V262.695H640.153ZM649.153 262.695V267.594H625.106V262.695H649.153ZM693.956 285.125V290H678.3V285.125H693.956ZM680.386 262.695V290H674.175V262.695H680.386ZM691.941 273.453V278.328H678.3V273.453H691.941ZM693.956 262.695V267.594H678.3V262.695H693.956ZM735.923 280.789H742.158C742.017 282.695 741.463 284.367 740.494 285.805C739.525 287.242 738.173 288.367 736.439 289.18C734.72 289.977 732.666 290.375 730.275 290.375C728.369 290.375 726.666 290.07 725.166 289.461C723.666 288.852 722.384 287.977 721.322 286.836C720.275 285.68 719.47 284.289 718.908 282.664C718.361 281.039 718.088 279.203 718.088 277.156V275.562C718.088 273.516 718.377 271.68 718.955 270.055C719.533 268.414 720.353 267.023 721.416 265.883C722.478 264.727 723.752 263.844 725.236 263.234C726.736 262.609 728.416 262.297 730.275 262.297C732.744 262.297 734.822 262.719 736.509 263.562C738.213 264.406 739.533 265.57 740.47 267.055C741.423 268.523 741.994 270.195 742.181 272.07H735.97C735.892 271.133 735.658 270.297 735.267 269.562C734.877 268.828 734.275 268.25 733.463 267.828C732.666 267.406 731.603 267.195 730.275 267.195C729.291 267.195 728.423 267.375 727.673 267.734C726.923 268.078 726.298 268.602 725.798 269.305C725.298 269.992 724.923 270.859 724.673 271.906C724.423 272.938 724.298 274.148 724.298 275.539V277.156C724.298 278.531 724.408 279.742 724.627 280.789C724.861 281.82 725.22 282.688 725.705 283.391C726.189 284.094 726.806 284.625 727.556 284.984C728.322 285.344 729.228 285.523 730.275 285.523C731.509 285.523 732.525 285.352 733.322 285.008C734.119 284.664 734.728 284.141 735.15 283.438C735.588 282.719 735.845 281.836 735.923 280.789ZM787.266 274.133V279.031H771.914V274.133H787.266ZM773.836 262.695V290H767.625V262.695H773.836ZM791.625 262.695V290H785.438V262.695H791.625ZM842.311 262.695V290H836.1L824.545 271.883V290H818.334V262.695H824.545L836.1 280.812V262.695H842.311ZM893.255 275.75V276.969C893.255 279.047 892.95 280.914 892.341 282.57C891.747 284.211 890.895 285.617 889.786 286.789C888.677 287.945 887.356 288.836 885.825 289.461C884.294 290.07 882.598 290.375 880.739 290.375C878.88 290.375 877.184 290.07 875.653 289.461C874.122 288.836 872.794 287.945 871.669 286.789C870.544 285.617 869.677 284.211 869.067 282.57C868.458 280.914 868.153 279.047 868.153 276.969V275.75C868.153 273.672 868.458 271.812 869.067 270.172C869.677 268.516 870.536 267.102 871.645 265.93C872.755 264.758 874.075 263.867 875.606 263.258C877.138 262.633 878.833 262.32 880.692 262.32C882.552 262.32 884.247 262.633 885.778 263.258C887.309 263.867 888.63 264.758 889.739 265.93C890.864 267.102 891.731 268.516 892.341 270.172C892.95 271.812 893.255 273.672 893.255 275.75ZM887.044 276.969V275.703C887.044 274.344 886.895 273.141 886.598 272.094C886.317 271.031 885.903 270.141 885.356 269.422C884.825 268.703 884.161 268.156 883.364 267.781C882.583 267.391 881.692 267.195 880.692 267.195C879.692 267.195 878.794 267.391 877.997 267.781C877.216 268.156 876.552 268.703 876.005 269.422C875.473 270.141 875.067 271.031 874.786 272.094C874.505 273.141 874.364 274.344 874.364 275.703V276.969C874.364 278.328 874.505 279.539 874.786 280.602C875.067 281.648 875.481 282.539 876.028 283.273C876.591 284.008 877.263 284.57 878.044 284.961C878.841 285.336 879.739 285.523 880.739 285.523C881.739 285.523 882.63 285.336 883.411 284.961C884.192 284.57 884.848 284.008 885.38 283.273C885.927 282.539 886.341 281.648 886.622 280.602C886.903 279.539 887.044 278.328 887.044 276.969ZM938.034 285.125V290H923.222V285.125H938.034ZM925.308 262.695V290H919.097V262.695H925.308ZM986.798 275.75V276.969C986.798 279.047 986.494 280.914 985.884 282.57C985.291 284.211 984.439 285.617 983.33 286.789C982.22 287.945 980.9 288.836 979.369 289.461C977.838 290.07 976.142 290.375 974.283 290.375C972.423 290.375 970.728 290.07 969.197 289.461C967.666 288.836 966.338 287.945 965.213 286.789C964.088 285.617 963.22 284.211 962.611 282.57C962.002 280.914 961.697 279.047 961.697 276.969V275.75C961.697 273.672 962.002 271.812 962.611 270.172C963.22 268.516 964.08 267.102 965.189 265.93C966.298 264.758 967.619 263.867 969.15 263.258C970.681 262.633 972.377 262.32 974.236 262.32C976.095 262.32 977.791 262.633 979.322 263.258C980.853 263.867 982.173 264.758 983.283 265.93C984.408 267.102 985.275 268.516 985.884 270.172C986.494 271.812 986.798 273.672 986.798 275.75ZM980.588 276.969V275.703C980.588 274.344 980.439 273.141 980.142 272.094C979.861 271.031 979.447 270.141 978.9 269.422C978.369 268.703 977.705 268.156 976.908 267.781C976.127 267.391 975.236 267.195 974.236 267.195C973.236 267.195 972.338 267.391 971.541 267.781C970.759 268.156 970.095 268.703 969.548 269.422C969.017 270.141 968.611 271.031 968.33 272.094C968.048 273.141 967.908 274.344 967.908 275.703V276.969C967.908 278.328 968.048 279.539 968.33 280.602C968.611 281.648 969.025 282.539 969.572 283.273C970.134 284.008 970.806 284.57 971.588 284.961C972.384 285.336 973.283 285.523 974.283 285.523C975.283 285.523 976.173 285.336 976.955 284.961C977.736 284.57 978.392 284.008 978.923 283.273C979.47 282.539 979.884 281.648 980.166 280.602C980.447 279.539 980.588 278.328 980.588 276.969ZM1036.03 275.516V286.625C1035.56 287.141 1034.84 287.695 1033.88 288.289C1032.92 288.867 1031.69 289.359 1030.17 289.766C1028.66 290.172 1026.83 290.375 1024.69 290.375C1022.8 290.375 1021.07 290.086 1019.51 289.508C1017.95 288.93 1016.6 288.078 1015.48 286.953C1014.35 285.812 1013.48 284.422 1012.88 282.781C1012.27 281.141 1011.96 279.266 1011.96 277.156V275.539C1011.96 273.43 1012.26 271.562 1012.85 269.938C1013.45 268.297 1014.29 266.906 1015.38 265.766C1016.48 264.625 1017.77 263.766 1019.27 263.188C1020.79 262.594 1022.46 262.297 1024.29 262.297C1026.88 262.297 1029 262.695 1030.64 263.492C1032.3 264.273 1033.55 265.359 1034.41 266.75C1035.27 268.141 1035.8 269.734 1036.01 271.531H1030.01C1029.87 270.625 1029.59 269.852 1029.16 269.211C1028.76 268.555 1028.17 268.055 1027.41 267.711C1026.66 267.367 1025.68 267.195 1024.48 267.195C1023.51 267.195 1022.63 267.367 1021.85 267.711C1021.07 268.055 1020.41 268.578 1019.86 269.281C1019.31 269.969 1018.9 270.828 1018.62 271.859C1018.34 272.891 1018.2 274.102 1018.2 275.492V277.156C1018.2 278.531 1018.34 279.742 1018.62 280.789C1018.91 281.836 1019.35 282.711 1019.93 283.414C1020.51 284.102 1021.23 284.625 1022.09 284.984C1022.96 285.344 1023.96 285.523 1025.09 285.523C1026.45 285.523 1027.49 285.383 1028.23 285.102C1028.96 284.805 1029.48 284.539 1029.8 284.305V279.875H1024.22V275.516H1036.03ZM1068.76 262.695V290H1062.55V262.695H1068.76ZM1115.7 285.125V290H1100.04V285.125H1115.7ZM1102.13 262.695V290H1095.92V262.695H1102.13ZM1113.68 273.453V278.328H1100.04V273.453H1113.68ZM1115.7 262.695V267.594H1100.04V262.695H1115.7ZM1156.03 282.781C1156.03 282.297 1155.93 281.859 1155.75 281.469C1155.57 281.078 1155.28 280.727 1154.88 280.414C1154.47 280.102 1153.91 279.805 1153.19 279.523C1152.49 279.242 1151.6 278.977 1150.54 278.727C1148.87 278.32 1147.41 277.875 1146.16 277.391C1144.91 276.906 1143.86 276.336 1143.02 275.68C1142.19 275.023 1141.57 274.25 1141.14 273.359C1140.74 272.453 1140.53 271.398 1140.53 270.195C1140.53 269.039 1140.78 267.984 1141.28 267.031C1141.8 266.062 1142.52 265.227 1143.44 264.523C1144.38 263.82 1145.48 263.281 1146.75 262.906C1148.03 262.516 1149.42 262.32 1150.94 262.32C1153.14 262.32 1155.07 262.672 1156.73 263.375C1158.4 264.078 1159.7 265.062 1160.62 266.328C1161.54 267.578 1162 269.062 1162 270.781H1155.79C1155.79 270.062 1155.6 269.414 1155.23 268.836C1154.87 268.242 1154.33 267.766 1153.61 267.406C1152.89 267.047 1152 266.867 1150.94 266.867C1149.92 266.867 1149.08 267.023 1148.41 267.336C1147.75 267.633 1147.26 268.023 1146.93 268.508C1146.62 268.977 1146.46 269.477 1146.46 270.008C1146.46 270.445 1146.56 270.844 1146.75 271.203C1146.95 271.547 1147.26 271.867 1147.68 272.164C1148.12 272.445 1148.69 272.719 1149.39 272.984C1150.1 273.234 1150.95 273.492 1151.95 273.758C1153.6 274.133 1155.06 274.578 1156.31 275.094C1157.57 275.594 1158.62 276.195 1159.45 276.898C1160.29 277.602 1160.92 278.422 1161.35 279.359C1161.77 280.297 1161.98 281.383 1161.98 282.617C1161.98 283.836 1161.73 284.93 1161.23 285.898C1160.73 286.852 1160 287.664 1159.05 288.336C1158.11 288.992 1156.99 289.5 1155.67 289.859C1154.38 290.203 1152.92 290.375 1151.32 290.375C1149.88 290.375 1148.46 290.203 1147.07 289.859C1145.68 289.516 1144.42 288.984 1143.3 288.266C1142.17 287.531 1141.28 286.602 1140.6 285.477C1139.93 284.352 1139.6 283.008 1139.6 281.445H1145.83C1145.83 282.227 1145.96 282.898 1146.21 283.461C1146.47 284.023 1146.85 284.484 1147.33 284.844C1147.83 285.188 1148.44 285.445 1149.16 285.617C1149.88 285.773 1150.69 285.852 1151.6 285.852C1152.66 285.852 1153.52 285.703 1154.17 285.406C1154.83 285.109 1155.3 284.727 1155.58 284.258C1155.88 283.789 1156.03 283.297 1156.03 282.781Z" fill="#F8F3F3"/>
<path d="M555 55L555 300" stroke="white" stroke-width="5" stroke-linecap="round"/>
<defs>
<linearGradient id="paint0_linear_2_60" x1="506.669" y1="86.391" x2="-92.4979" y2="304.063" gradientUnits="userSpaceOnUse">
<stop offset="0.169951" stop-color="#1E1BF9"/>
<stop offset="0.787019" stop-color="#FADF11"/>
</linearGradient>
</defs>
</svg>
