<svg width="918" height="451" viewBox="0 0 918 451" fill="none" xmlns="http://www.w3.org/2000/svg">
<path d="M225.524 451C286.712 451 327.444 421.367 367.2 385.952L457.76 294.361L457.554 294.162L556.583 194.421C565.257 187.194 628.756 101.186 691.753 101.186C758.82 101.186 813.189 155.549 813.189 222.609C813.189 289.669 758.82 344.032 691.753 344.032C635.843 344.032 606.842 310.379 561.469 257.728C516.097 205.077 561.467 257.726 561.467 257.726C557.633 253.286 553.807 248.838 549.96 244.409L479.316 315.045L561.857 395.778C594.443 430.477 635.14 451 692.476 451C817.029 451 918 350.04 918 225.5C918 100.96 817.029 0 692.476 0C640.643 0 603.034 13.518 572.567 39.929C532.59 75.2606 496.155 115.253 458.232 152.764L458.135 152.669L342.251 271.969C318.047 297.053 269.422 346.923 222.633 346.923C155.566 346.923 101.197 292.56 101.197 225.5C101.197 158.44 155.566 104.077 222.633 104.077C278.543 104.077 307.544 137.73 352.917 190.381C356.641 194.703 360.477 199.154 364.446 203.724L437.348 132.218L364.423 60.4748C330.474 21.5146 287.82 0 225.524 0C100.971 0 0 100.96 0 225.5C0 350.04 100.971 451 225.524 451Z" fill="white"/>
<path d="M225.524 451C286.712 451 327.444 421.367 367.2 385.952L457.76 294.361L457.554 294.162L556.583 194.421C565.257 187.194 628.756 101.186 691.753 101.186C758.82 101.186 813.189 155.549 813.189 222.609C813.189 289.669 758.82 344.032 691.753 344.032C635.843 344.032 606.842 310.379 561.469 257.728C516.097 205.077 561.467 257.726 561.467 257.726C557.633 253.286 553.807 248.838 549.96 244.409L479.316 315.045L561.857 395.778C594.443 430.477 635.14 451 692.476 451C817.029 451 918 350.04 918 225.5C918 100.96 817.029 0 692.476 0C640.643 0 603.034 13.518 572.567 39.929C532.59 75.2606 496.155 115.253 458.232 152.764L458.135 152.669L342.251 271.969C318.047 297.053 269.422 346.923 222.633 346.923C155.566 346.923 101.197 292.56 101.197 225.5C101.197 158.44 155.566 104.077 222.633 104.077C278.543 104.077 307.544 137.73 352.917 190.381C356.641 194.703 360.477 199.154 364.446 203.724L437.348 132.218L364.423 60.4748C330.474 21.5146 287.82 0 225.524 0C100.971 0 0 100.96 0 225.5C0 350.04 100.971 451 225.524 451Z" fill="url(#paint0_linear_2_45)" fill-opacity="0.72"/>
<defs>
<linearGradient id="paint0_linear_2_45" x1="964.984" y1="59.9887" x2="-177.066" y2="473.485" gradientUnits="userSpaceOnUse">
<stop offset="0.169951" stop-color="#1E1BF9"/>
<stop offset="0.787019" stop-color="#FADF11"/>
</linearGradient>
</defs>
</svg>
