<svg width="1972" height="303" viewBox="0 0 1972 303" fill="none" xmlns="http://www.w3.org/2000/svg">
<path d="M118.413 268C150.539 268 171.926 252.494 192.8 233.962L240.349 186.034L240.241 185.929L292.236 133.737C296.791 129.955 330.131 84.9487 363.208 84.9487C398.422 84.9487 426.969 113.396 426.969 148.487C426.969 183.579 398.422 212.026 363.208 212.026C333.852 212.026 318.625 194.416 294.802 166.864C270.979 139.313 294.801 166.863 294.801 166.863C292.788 164.54 290.779 162.212 288.759 159.895L251.667 196.857L295.005 239.103C312.115 257.261 333.483 268 363.587 268C428.985 268 482 215.17 482 150C482 84.8304 428.985 32 363.587 32C336.372 32 316.625 39.0737 300.629 52.8941C279.639 71.3825 260.508 92.3096 240.597 111.939L240.546 111.889L179.7 174.317C166.992 187.442 141.461 213.538 116.894 213.538C81.6805 213.538 53.1339 185.091 53.1339 150C53.1339 114.909 81.6805 86.4615 116.894 86.4615C146.25 86.4615 161.477 104.072 185.3 131.623C187.256 133.885 189.27 136.214 191.354 138.605L229.631 101.187L191.342 63.6453C173.517 43.2582 151.121 32 118.413 32C53.0151 32 0 84.8304 0 150C0 215.17 53.0151 268 118.413 268Z" fill="white"/>
<path d="M118.413 268C150.539 268 171.926 252.494 192.8 233.962L240.349 186.034L240.241 185.929L292.236 133.737C296.791 129.955 330.131 84.9487 363.208 84.9487C398.422 84.9487 426.969 113.396 426.969 148.487C426.969 183.579 398.422 212.026 363.208 212.026C333.852 212.026 318.625 194.416 294.802 166.864C270.979 139.313 294.801 166.863 294.801 166.863C292.788 164.54 290.779 162.212 288.759 159.895L251.667 196.857L295.005 239.103C312.115 257.261 333.483 268 363.587 268C428.985 268 482 215.17 482 150C482 84.8304 428.985 32 363.587 32C336.372 32 316.625 39.0737 300.629 52.8941C279.639 71.3825 260.508 92.3096 240.597 111.939L240.546 111.889L179.7 174.317C166.992 187.442 141.461 213.538 116.894 213.538C81.6805 213.538 53.1339 185.091 53.1339 150C53.1339 114.909 81.6805 86.4615 116.894 86.4615C146.25 86.4615 161.477 104.072 185.3 131.623C187.256 133.885 189.27 136.214 191.354 138.605L229.631 101.187L191.342 63.6453C173.517 43.2582 151.121 32 118.413 32C53.0151 32 0 84.8304 0 150C0 215.17 53.0151 268 118.413 268Z" fill="url(#paint0_linear_46_9)" fill-opacity="0.72"/>
<path d="M653.344 239C651.467 239 649.931 238.403 648.736 237.208C647.541 236.013 646.944 234.477 646.944 232.6V66.2C646.944 64.3227 647.541 62.7867 648.736 61.592C649.931 60.3973 651.467 59.8 653.344 59.8H767.52C769.397 59.8 770.933 60.3973 772.128 61.592C773.323 62.7867 773.92 64.3227 773.92 66.2V87.96C773.92 89.8373 773.323 91.3733 772.128 92.568C770.933 93.7627 769.397 94.36 767.52 94.36H686.88V137.624H762.4C764.277 137.624 765.813 138.221 767.008 139.416C768.203 140.611 768.8 142.147 768.8 144.024V165.784C768.8 167.491 768.203 168.941 767.008 170.136C765.813 171.331 764.277 171.928 762.4 171.928H686.88V232.6C686.88 234.477 686.283 236.013 685.088 237.208C683.893 238.403 682.357 239 680.48 239H653.344ZM806.528 239C804.651 239 803.115 238.403 801.92 237.208C800.725 236.013 800.128 234.477 800.128 232.6V63.64C800.128 61.7627 800.725 60.2267 801.92 59.032C803.115 57.8373 804.651 57.24 806.528 57.24H832.128C833.835 57.24 835.285 57.8373 836.48 59.032C837.675 60.2267 838.272 61.7627 838.272 63.64V232.6C838.272 234.477 837.675 236.013 836.48 237.208C835.285 238.403 833.835 239 832.128 239H806.528ZM931.556 241.56C917.391 241.56 905.529 239.256 895.972 234.648C886.415 229.869 879.076 223.128 873.956 214.424C869.007 205.72 866.276 195.565 865.764 183.96C865.593 180.547 865.508 176.707 865.508 172.44C865.508 168.003 865.593 164.163 865.764 160.92C866.276 149.144 869.177 138.989 874.468 130.456C879.759 121.752 887.183 115.096 896.74 110.488C906.297 105.709 917.903 103.32 931.556 103.32C945.039 103.32 956.559 105.709 966.116 110.488C975.673 115.096 983.097 121.752 988.388 130.456C993.679 138.989 996.58 149.144 997.092 160.92C997.433 164.163 997.604 168.003 997.604 172.44C997.604 176.707 997.433 180.547 997.092 183.96C996.58 195.565 993.764 205.72 988.644 214.424C983.695 223.128 976.441 229.869 966.884 234.648C957.327 239.256 945.551 241.56 931.556 241.56ZM931.556 213.4C939.919 213.4 946.233 210.84 950.5 205.72C954.767 200.429 957.071 192.749 957.412 182.68C957.583 180.12 957.668 176.707 957.668 172.44C957.668 168.173 957.583 164.76 957.412 162.2C957.071 152.301 954.767 144.707 950.5 139.416C946.233 134.125 939.919 131.48 931.556 131.48C923.193 131.48 916.793 134.125 912.356 139.416C908.089 144.707 905.785 152.301 905.444 162.2C905.273 164.76 905.188 168.173 905.188 172.44C905.188 176.707 905.273 180.12 905.444 182.68C905.785 192.749 908.089 200.429 912.356 205.72C916.793 210.84 923.193 213.4 931.556 213.4ZM1057.24 239C1054.85 239 1052.97 238.403 1051.6 237.208C1050.41 236.013 1049.47 234.477 1048.79 232.6L1012.18 114.072C1011.84 113.219 1011.67 112.365 1011.67 111.512C1011.67 109.976 1012.18 108.696 1013.2 107.672C1014.4 106.477 1015.76 105.88 1017.3 105.88H1039.83C1042.05 105.88 1043.75 106.477 1044.95 107.672C1046.14 108.867 1046.91 109.976 1047.25 111L1070.55 190.104L1095.38 111.512C1095.72 110.317 1096.49 109.123 1097.68 107.928C1099.05 106.563 1100.93 105.88 1103.32 105.88H1117.91C1120.3 105.88 1122.09 106.563 1123.28 107.928C1124.65 109.123 1125.5 110.317 1125.84 111.512L1150.68 190.104L1173.97 111C1174.14 109.976 1174.83 108.867 1176.02 107.672C1177.39 106.477 1179.09 105.88 1181.14 105.88H1203.67C1205.2 105.88 1206.48 106.477 1207.51 107.672C1208.7 108.696 1209.3 109.976 1209.3 111.512C1209.3 112.365 1209.21 113.219 1209.04 114.072L1172.18 232.6C1171.67 234.477 1170.73 236.013 1169.36 237.208C1168.17 238.403 1166.38 239 1163.99 239H1144.28C1141.89 239 1140.01 238.403 1138.64 237.208C1137.28 236.013 1136.25 234.477 1135.57 232.6L1110.74 156.824L1085.4 232.6C1084.88 234.477 1083.95 236.013 1082.58 237.208C1081.21 238.403 1079.34 239 1076.95 239H1057.24ZM1242.09 239C1240.22 239 1238.68 238.403 1237.49 237.208C1236.29 236.013 1235.69 234.477 1235.69 232.6V66.2C1235.69 64.3227 1236.29 62.7867 1237.49 61.592C1238.68 60.3973 1240.22 59.8 1242.09 59.8H1318.13C1332.29 59.8 1343.9 61.848 1352.94 65.944C1361.99 70.04 1368.64 75.8427 1372.91 83.352C1377.35 90.8613 1379.57 99.6507 1379.57 109.72C1379.57 116.035 1378.37 121.581 1375.98 126.36C1373.76 131.139 1370.95 135.064 1367.53 138.136C1364.29 141.208 1361.13 143.512 1358.06 145.048C1364.72 148.12 1370.52 153.24 1375.47 160.408C1380.59 167.405 1383.15 175.768 1383.15 185.496C1383.15 196.248 1380.76 205.635 1375.98 213.656C1371.2 221.677 1364.12 227.907 1354.73 232.344C1345.35 236.781 1333.91 239 1320.43 239H1242.09ZM1276.4 209.048H1315.57C1323.93 209.048 1330.24 206.744 1334.51 202.136C1338.78 197.357 1340.91 191.725 1340.91 185.24C1340.91 178.584 1338.69 173.037 1334.25 168.6C1329.99 163.992 1323.76 161.688 1315.57 161.688H1276.4V209.048ZM1276.4 132.248H1313.26C1321.28 132.248 1327.26 130.285 1331.18 126.36C1335.28 122.264 1337.33 117.059 1337.33 110.744C1337.33 104.429 1335.28 99.3947 1331.18 95.64C1327.26 91.7147 1321.28 89.752 1313.26 89.752H1276.4V132.248ZM1471.81 241.56C1457.64 241.56 1445.78 239.256 1436.22 234.648C1426.66 229.869 1419.33 223.128 1414.21 214.424C1409.26 205.72 1406.53 195.565 1406.01 183.96C1405.84 180.547 1405.76 176.707 1405.76 172.44C1405.76 168.003 1405.84 164.163 1406.01 160.92C1406.53 149.144 1409.43 138.989 1414.72 130.456C1420.01 121.752 1427.43 115.096 1436.99 110.488C1446.55 105.709 1458.15 103.32 1471.81 103.32C1485.29 103.32 1496.81 105.709 1506.37 110.488C1515.92 115.096 1523.35 121.752 1528.64 130.456C1533.93 138.989 1536.83 149.144 1537.34 160.92C1537.68 164.163 1537.85 168.003 1537.85 172.44C1537.85 176.707 1537.68 180.547 1537.34 183.96C1536.83 195.565 1534.01 205.72 1528.89 214.424C1523.94 223.128 1516.69 229.869 1507.13 234.648C1497.58 239.256 1485.8 241.56 1471.81 241.56ZM1471.81 213.4C1480.17 213.4 1486.48 210.84 1490.75 205.72C1495.02 200.429 1497.32 192.749 1497.66 182.68C1497.83 180.12 1497.92 176.707 1497.92 172.44C1497.92 168.173 1497.83 164.76 1497.66 162.2C1497.32 152.301 1495.02 144.707 1490.75 139.416C1486.48 134.125 1480.17 131.48 1471.81 131.48C1463.44 131.48 1457.04 134.125 1452.61 139.416C1448.34 144.707 1446.04 152.301 1445.69 162.2C1445.52 164.76 1445.44 168.173 1445.44 172.44C1445.44 176.707 1445.52 180.12 1445.69 182.68C1446.04 192.749 1448.34 200.429 1452.61 205.72C1457.04 210.84 1463.44 213.4 1471.81 213.4ZM1570.77 239C1569.07 239 1567.61 238.403 1566.42 237.208C1565.23 236.013 1564.63 234.477 1564.63 232.6V112.28C1564.63 110.573 1565.23 109.123 1566.42 107.928C1567.61 106.563 1569.07 105.88 1570.77 105.88H1595.86C1597.57 105.88 1599.02 106.563 1600.21 107.928C1601.58 109.123 1602.26 110.573 1602.26 112.28V122.52C1606.53 117.229 1611.73 113.133 1617.88 110.232C1624.19 107.331 1631.44 105.88 1639.64 105.88H1650.64C1652.35 105.88 1653.8 106.477 1655 107.672C1656.19 108.867 1656.79 110.403 1656.79 112.28V134.296C1656.79 136.173 1656.19 137.709 1655 138.904C1653.8 140.099 1652.35 140.696 1650.64 140.696H1628.12C1620.61 140.696 1614.72 142.829 1610.45 147.096C1606.19 151.192 1604.05 157.08 1604.05 164.76V232.6C1604.05 234.477 1603.45 236.013 1602.26 237.208C1601.07 238.403 1599.53 239 1597.65 239H1570.77ZM1682.02 239C1680.32 239 1678.86 238.403 1677.67 237.208C1676.48 236.013 1675.88 234.477 1675.88 232.6V112.28C1675.88 110.403 1676.48 108.867 1677.67 107.672C1678.86 106.477 1680.32 105.88 1682.02 105.88H1707.11C1708.99 105.88 1710.52 106.477 1711.72 107.672C1712.91 108.867 1713.51 110.403 1713.51 112.28V122.264C1717.95 116.803 1723.66 112.28 1730.66 108.696C1737.66 105.112 1746.19 103.32 1756.26 103.32C1766.33 103.32 1775.12 105.624 1782.63 110.232C1790.31 114.669 1796.28 121.24 1800.55 129.944C1804.99 138.477 1807.21 148.888 1807.21 161.176V232.6C1807.21 234.477 1806.52 236.013 1805.16 237.208C1803.96 238.403 1802.51 239 1800.81 239H1773.67C1771.79 239 1770.26 238.403 1769.06 237.208C1767.87 236.013 1767.27 234.477 1767.27 232.6V162.712C1767.27 153.667 1765.05 146.669 1760.61 141.72C1756.35 136.6 1750.03 134.04 1741.67 134.04C1733.65 134.04 1727.25 136.6 1722.47 141.72C1717.69 146.669 1715.3 153.667 1715.3 162.712V232.6C1715.3 234.477 1714.7 236.013 1713.51 237.208C1712.32 238.403 1710.86 239 1709.16 239H1682.02ZM1897.27 241.56C1877.64 241.56 1862.03 236.099 1850.42 225.176C1838.99 214.253 1832.93 198.381 1832.25 177.56C1832.25 176.195 1832.25 174.403 1832.25 172.184C1832.25 169.795 1832.25 167.917 1832.25 166.552C1832.93 153.411 1835.92 142.147 1841.21 132.76C1846.5 123.203 1853.92 115.949 1863.48 111C1873.04 105.88 1884.21 103.32 1897.01 103.32C1911.35 103.32 1923.3 106.307 1932.85 112.28C1942.58 118.083 1949.84 126.104 1954.61 136.344C1959.56 146.413 1962.04 158.019 1962.04 171.16V177.048C1962.04 178.755 1961.36 180.205 1959.99 181.4C1958.8 182.595 1957.34 183.192 1955.64 183.192H1871.93C1871.93 183.363 1871.93 183.704 1871.93 184.216C1871.93 184.557 1871.93 184.899 1871.93 185.24C1872.1 190.701 1873.12 195.736 1875 200.344C1877.05 204.781 1879.86 208.365 1883.45 211.096C1887.2 213.827 1891.64 215.192 1896.76 215.192C1901.02 215.192 1904.52 214.595 1907.25 213.4C1909.98 212.205 1912.2 210.755 1913.91 209.048C1915.79 207.341 1917.15 205.891 1918.01 204.696C1919.54 202.989 1920.74 201.965 1921.59 201.624C1922.61 201.112 1924.15 200.856 1926.2 200.856H1952.82C1954.53 200.856 1955.89 201.368 1956.92 202.392C1958.11 203.245 1958.62 204.525 1958.45 206.232C1958.28 208.963 1956.83 212.376 1954.1 216.472C1951.54 220.397 1947.7 224.323 1942.58 228.248C1937.46 232.003 1931.06 235.16 1923.38 237.72C1915.87 240.28 1907.17 241.56 1897.27 241.56ZM1871.93 159.896H1922.1V159.384C1922.1 153.24 1921.08 147.949 1919.03 143.512C1917.15 138.904 1914.34 135.32 1910.58 132.76C1906.83 130.2 1902.3 128.92 1897.01 128.92C1891.72 128.92 1887.2 130.2 1883.45 132.76C1879.69 135.32 1876.79 138.904 1874.74 143.512C1872.86 147.949 1871.93 153.24 1871.93 159.384V159.896Z" fill="#F8F3F3"/>
<path d="M555 27L555 272" stroke="white" stroke-width="5" stroke-linecap="round"/>
<defs>
<linearGradient id="paint0_linear_46_9" x1="506.669" y1="63.391" x2="-92.4979" y2="281.063" gradientUnits="userSpaceOnUse">
<stop offset="0.169951" stop-color="#1E1BF9"/>
<stop offset="0.787019" stop-color="#FADF11"/>
</linearGradient>
</defs>
</svg>
