<svg width="1850" height="300" viewBox="0 0 1850 300" fill="none" xmlns="http://www.w3.org/2000/svg">
<path d="M118.413 268C150.539 268 171.926 252.494 192.8 233.962L240.349 186.034L240.241 185.929L292.236 133.737C296.791 129.955 330.131 84.9487 363.208 84.9487C398.422 84.9487 426.969 113.396 426.969 148.487C426.969 183.579 398.422 212.026 363.208 212.026C333.852 212.026 318.625 194.416 294.802 166.864C270.979 139.313 294.801 166.863 294.801 166.863C292.788 164.54 290.779 162.212 288.759 159.895L251.667 196.857L295.005 239.103C312.115 257.261 333.483 268 363.587 268C428.985 268 482 215.17 482 150C482 84.8304 428.985 32 363.587 32C336.372 32 316.625 39.0737 300.629 52.8941C279.639 71.3825 260.508 92.3096 240.597 111.939L240.546 111.889L179.7 174.317C166.992 187.442 141.461 213.538 116.894 213.538C81.6805 213.538 53.1339 185.091 53.1339 150C53.1339 114.909 81.6805 86.4615 116.894 86.4615C146.25 86.4615 161.477 104.072 185.3 131.623C187.256 133.885 189.27 136.214 191.354 138.605L229.631 101.187L191.342 63.6453C173.517 43.2582 151.121 32 118.413 32C53.0151 32 0 84.8304 0 150C0 215.17 53.0151 268 118.413 268Z" fill="white"/>
<path d="M118.413 268C150.539 268 171.926 252.494 192.8 233.962L240.349 186.034L240.241 185.929L292.236 133.737C296.791 129.955 330.131 84.9487 363.208 84.9487C398.422 84.9487 426.969 113.396 426.969 148.487C426.969 183.579 398.422 212.026 363.208 212.026C333.852 212.026 318.625 194.416 294.802 166.864C270.979 139.313 294.801 166.863 294.801 166.863C292.788 164.54 290.779 162.212 288.759 159.895L251.667 196.857L295.005 239.103C312.115 257.261 333.483 268 363.587 268C428.985 268 482 215.17 482 150C482 84.8304 428.985 32 363.587 32C336.372 32 316.625 39.0737 300.629 52.8941C279.639 71.3825 260.508 92.3096 240.597 111.939L240.546 111.889L179.7 174.317C166.992 187.442 141.461 213.538 116.894 213.538C81.6805 213.538 53.1339 185.091 53.1339 150C53.1339 114.909 81.6805 86.4615 116.894 86.4615C146.25 86.4615 161.477 104.072 185.3 131.623C187.256 133.885 189.27 136.214 191.354 138.605L229.631 101.187L191.342 63.6453C173.517 43.2582 151.121 32 118.413 32C53.0151 32 0 84.8304 0 150C0 215.17 53.0151 268 118.413 268Z" fill="url(#paint0_linear_46_9)" fill-opacity="0.72"/>
<path d="M679.75 56V238H645.375V56H679.75ZM753.125 134.625V161.75H670.75V134.625H753.125ZM762.75 56V83.125H670.75V56H762.75ZM818.625 46V238H785.5V46H818.625ZM844.25 171.75V169.125C844.25 159.208 845.667 150.083 848.5 141.75C851.333 133.333 855.458 126.042 860.875 119.875C866.292 113.708 872.917 108.917 880.75 105.5C888.583 102 897.5 100.25 907.5 100.25C917.667 100.25 926.667 102 934.5 105.5C942.417 108.917 949.083 113.708 954.5 119.875C959.917 126.042 964.042 133.333 966.875 141.75C969.708 150.083 971.125 159.208 971.125 169.125V171.75C971.125 181.583 969.708 190.708 966.875 199.125C964.042 207.458 959.917 214.75 954.5 221C949.083 227.167 942.458 231.958 934.625 235.375C926.792 238.792 917.833 240.5 907.75 240.5C897.75 240.5 888.792 238.792 880.875 235.375C872.958 231.958 866.292 227.167 860.875 221C855.458 214.75 851.333 207.458 848.5 199.125C845.667 190.708 844.25 181.583 844.25 171.75ZM877.25 169.125V171.75C877.25 177.667 877.833 183.208 879 188.375C880.167 193.542 881.958 198.083 884.375 202C886.792 205.917 889.917 209 893.75 211.25C897.667 213.417 902.333 214.5 907.75 214.5C913.083 214.5 917.667 213.417 921.5 211.25C925.333 209 928.458 205.917 930.875 202C933.375 198.083 935.208 193.542 936.375 188.375C937.542 183.208 938.125 177.667 938.125 171.75V169.125C938.125 163.292 937.542 157.833 936.375 152.75C935.208 147.583 933.375 143.042 930.875 139.125C928.458 135.125 925.292 132 921.375 129.75C917.542 127.417 912.917 126.25 907.5 126.25C902.167 126.25 897.583 127.417 893.75 129.75C889.917 132 886.792 135.125 884.375 139.125C881.958 143.042 880.167 147.583 879 152.75C877.833 157.833 877.25 163.292 877.25 169.125ZM1032.75 205.5L1062.38 102.75H1083.38L1077.12 138.25L1047.25 238H1029.12L1032.75 205.5ZM1016.38 102.75L1038.62 205.75L1040.62 238H1019.75L984.25 102.75H1016.38ZM1110.88 204.25L1132.62 102.75H1164.62L1129.38 238H1108.5L1110.88 204.25ZM1086.62 102.75L1116 204.5L1119.88 238H1101.75L1071.62 138.25L1065.5 102.75H1086.62ZM1256.38 156.875H1209.88L1209.62 132.625H1249.5C1256.33 132.625 1262.04 131.667 1266.62 129.75C1271.21 127.833 1274.67 125.042 1277 121.375C1279.42 117.708 1280.62 113.25 1280.62 108C1280.62 102.167 1279.5 97.4167 1277.25 93.75C1275.08 90.0833 1271.67 87.4167 1267 85.75C1262.33 84 1256.42 83.125 1249.25 83.125H1221V238H1186.62V56H1249.25C1259.58 56 1268.79 57 1276.88 59C1285.04 60.9167 1291.96 63.9167 1297.62 68C1303.29 72.0833 1307.58 77.2083 1310.5 83.375C1313.5 89.5417 1315 96.875 1315 105.375C1315 112.875 1313.25 119.792 1309.75 126.125C1306.33 132.375 1301.04 137.458 1293.88 141.375C1286.79 145.292 1277.79 147.542 1266.88 148.125L1256.38 156.875ZM1254.88 238H1199.75L1214.12 211H1254.88C1261.71 211 1267.33 209.875 1271.75 207.625C1276.25 205.375 1279.58 202.292 1281.75 198.375C1284 194.375 1285.12 189.792 1285.12 184.625C1285.12 178.958 1284.12 174.042 1282.12 169.875C1280.21 165.708 1277.12 162.5 1272.88 160.25C1268.71 158 1263.21 156.875 1256.38 156.875H1220.62L1220.88 132.625H1266.38L1274.25 142C1284.75 142.083 1293.29 144.167 1299.88 148.25C1306.54 152.333 1311.46 157.583 1314.62 164C1317.79 170.417 1319.38 177.333 1319.38 184.75C1319.38 196.417 1316.83 206.208 1311.75 214.125C1306.75 222.042 1299.42 228 1289.75 232C1280.17 236 1268.54 238 1254.88 238ZM1340.75 171.75V169.125C1340.75 159.208 1342.17 150.083 1345 141.75C1347.83 133.333 1351.96 126.042 1357.38 119.875C1362.79 113.708 1369.42 108.917 1377.25 105.5C1385.08 102 1394 100.25 1404 100.25C1414.17 100.25 1423.17 102 1431 105.5C1438.92 108.917 1445.58 113.708 1451 119.875C1456.42 126.042 1460.54 133.333 1463.38 141.75C1466.21 150.083 1467.62 159.208 1467.62 169.125V171.75C1467.62 181.583 1466.21 190.708 1463.38 199.125C1460.54 207.458 1456.42 214.75 1451 221C1445.58 227.167 1438.96 231.958 1431.12 235.375C1423.29 238.792 1414.33 240.5 1404.25 240.5C1394.25 240.5 1385.29 238.792 1377.38 235.375C1369.46 231.958 1362.79 227.167 1357.38 221C1351.96 214.75 1347.83 207.458 1345 199.125C1342.17 190.708 1340.75 181.583 1340.75 171.75ZM1373.75 169.125V171.75C1373.75 177.667 1374.33 183.208 1375.5 188.375C1376.67 193.542 1378.46 198.083 1380.88 202C1383.29 205.917 1386.42 209 1390.25 211.25C1394.17 213.417 1398.83 214.5 1404.25 214.5C1409.58 214.5 1414.17 213.417 1418 211.25C1421.83 209 1424.96 205.917 1427.38 202C1429.88 198.083 1431.71 193.542 1432.88 188.375C1434.04 183.208 1434.62 177.667 1434.62 171.75V169.125C1434.62 163.292 1434.04 157.833 1432.88 152.75C1431.71 147.583 1429.88 143.042 1427.38 139.125C1424.96 135.125 1421.79 132 1417.88 129.75C1414.04 127.417 1409.42 126.25 1404 126.25C1398.67 126.25 1394.08 127.417 1390.25 129.75C1386.42 132 1383.29 135.125 1380.88 139.125C1378.46 143.042 1376.67 147.583 1375.5 152.75C1374.33 157.833 1373.75 163.292 1373.75 169.125ZM1524.62 130.375V238H1491.62V102.75H1522.88L1524.62 130.375ZM1565.75 101.875L1565.25 132.625C1563.42 132.292 1561.33 132.042 1559 131.875C1556.75 131.708 1554.62 131.625 1552.62 131.625C1547.54 131.625 1543.08 132.333 1539.25 133.75C1535.42 135.083 1532.21 137.042 1529.62 139.625C1527.12 142.208 1525.21 145.375 1523.88 149.125C1522.54 152.792 1521.79 156.958 1521.62 161.625L1514.5 160.75C1514.5 152.167 1515.38 144.208 1517.12 136.875C1518.88 129.542 1521.42 123.125 1524.75 117.625C1528.08 112.125 1532.25 107.875 1537.25 104.875C1542.33 101.792 1548.17 100.25 1554.75 100.25C1556.58 100.25 1558.54 100.417 1560.62 100.75C1562.79 101 1564.5 101.375 1565.75 101.875ZM1616.25 131.625V238H1583.25V102.75H1614.25L1616.25 131.625ZM1611 165.5H1601.25C1601.33 155.667 1602.67 146.75 1605.25 138.75C1607.83 130.75 1611.46 123.875 1616.12 118.125C1620.88 112.375 1626.5 107.958 1633 104.875C1639.5 101.792 1646.75 100.25 1654.75 100.25C1661.25 100.25 1667.12 101.167 1672.38 103C1677.62 104.833 1682.12 107.75 1685.88 111.75C1689.71 115.75 1692.62 121 1694.62 127.5C1696.71 133.917 1697.75 141.833 1697.75 151.25V238H1664.5V151C1664.5 144.833 1663.58 139.958 1661.75 136.375C1660 132.792 1657.42 130.25 1654 128.75C1650.67 127.25 1646.54 126.5 1641.62 126.5C1636.54 126.5 1632.08 127.542 1628.25 129.625C1624.5 131.625 1621.33 134.417 1618.75 138C1616.25 141.583 1614.33 145.708 1613 150.375C1611.67 155.042 1611 160.083 1611 165.5ZM1787.62 240.5C1777.38 240.5 1768.17 238.833 1760 235.5C1751.83 232.167 1744.88 227.542 1739.12 221.625C1733.46 215.625 1729.08 208.667 1726 200.75C1723 192.75 1721.5 184.167 1721.5 175V170C1721.5 159.583 1723 150.125 1726 141.625C1729 133.042 1733.25 125.667 1738.75 119.5C1744.25 113.333 1750.83 108.583 1758.5 105.25C1766.17 101.917 1774.62 100.25 1783.88 100.25C1793.46 100.25 1801.92 101.875 1809.25 105.125C1816.58 108.292 1822.71 112.792 1827.62 118.625C1832.54 124.458 1836.25 131.458 1838.75 139.625C1841.25 147.708 1842.5 156.667 1842.5 166.5V180.375H1736.5V157.625H1810V155.125C1809.83 149.875 1808.83 145.083 1807 140.75C1805.17 136.333 1802.33 132.833 1798.5 130.25C1794.67 127.583 1789.71 126.25 1783.62 126.25C1778.71 126.25 1774.42 127.333 1770.75 129.5C1767.17 131.583 1764.17 134.583 1761.75 138.5C1759.42 142.333 1757.67 146.917 1756.5 152.25C1755.33 157.583 1754.75 163.5 1754.75 170V175C1754.75 180.667 1755.5 185.917 1757 190.75C1758.58 195.583 1760.88 199.792 1763.88 203.375C1766.96 206.875 1770.62 209.625 1774.88 211.625C1779.21 213.542 1784.12 214.5 1789.62 214.5C1796.54 214.5 1802.79 213.167 1808.38 210.5C1814.04 207.75 1818.96 203.708 1823.12 198.375L1839.75 215.625C1836.92 219.792 1833.08 223.792 1828.25 227.625C1823.5 231.458 1817.75 234.583 1811 237C1804.25 239.333 1796.46 240.5 1787.62 240.5Z" fill="#F8F3F3"/>
<path d="M555 27L555 272" stroke="white" stroke-width="5" stroke-linecap="round"/>
<defs>
<linearGradient id="paint0_linear_46_9" x1="506.669" y1="63.391" x2="-92.4979" y2="281.063" gradientUnits="userSpaceOnUse">
<stop offset="0.169951" stop-color="#1E1BF9"/>
<stop offset="0.787019" stop-color="#FADF11"/>
</linearGradient>
</defs>
</svg>
